<svg xmlns="http://www.w3.org/2000/svg" width="99" height="102" viewBox="0 0 99 102">
    <path fill="#CDEFFF" fill-rule="evenodd" d="M86.448 74.64C85.551 76.68 83.587 78 81.445 78c-.74 0-1.453-.162-2.118-.484a5.453 5.453 0 0 1-1.805-1.409L69 66.001 81.534 66h.002c.749 0 1.483.17 2.18.505 1.376.66 2.42 1.876 2.941 3.423a6.519 6.519 0 0 1-.209 4.712zm-.195-13.676a10.976 10.976 0 0 0-4.49-.964h-.002L56 60.002l17.515 19.344a11.219 11.219 0 0 0 3.713 2.703c1.434.646 2.946.951 4.442.951 4.204 0 8.29-2.412 10.204-6.47 2.79-5.914.204-12.962-5.621-15.566zm-65.786 15.12a5.458 5.458 0 0 1-1.822 1.412 5.038 5.038 0 0 1-2.184.504c-2.272 0-4.276-1.502-5.107-3.825-1.041-2.915.299-6.432 2.928-7.678A5.023 5.023 0 0 1 16.45 66l12.55.001-8.533 10.082zM17.226 60c-1.493 0-3.008.305-4.463.95-5.48 2.423-8.187 9.047-6.01 14.73C8.503 80.254 12.761 83 17.235 83c1.502 0 3.029-.31 4.493-.963a11.214 11.214 0 0 0 3.746-2.714L43 60.002 17.226 60zm32.273 36a8.35 8.35 0 0 1-2.613-.437c-2.085-.687-3.74-2.362-4.427-4.476-.663-2.04-.606-4.074.16-5.882L49.5 69l6.88 16.205c.412.971.621 2.007.621 3.081C57 92.539 53.636 96 49.5 96zm1.851-36h-4.699l-9.57 22.95c-1.239 2.968-1.494 6.487-.339 10.107 1.242 3.894 4.236 6.97 7.97 8.224 1.46.49 2.899.719 4.288.719 7.18 0 13-6.093 13-13.61a14.1 14.1 0 0 0-1.08-5.44L51.35 60zM56 48l11.598-12H84L72.403 48H56zm-4-20.921L64 15v16.921L52 44V27.079zM47 44L35 31.921V15l12 12.079V44zm-21.402 4L14 36h16.402L42 48H25.598zm73.313.084H81.175l14.632-15.087a51.482 51.482 0 0 0-1.195-2.958H73.926l12.54-12.93a50.629 50.629 0 0 0-4.057-4.184l-12.54 12.93V4.526a48.09 48.09 0 0 0-2.756-1.187L52.368 18.542V.092A48.49 48.49 0 0 0 49.5 0c-.963 0-1.918.035-2.868.092v18.45L31.887 3.338a48.68 48.68 0 0 0-2.756 1.186v21.332l-12.54-12.93a50.463 50.463 0 0 0-4.055 4.183l12.54 12.93H4.388a50.809 50.809 0 0 0-1.196 2.958l14.633 15.087H.089C.034 49.064 0 50.05 0 51.044 0 52.035.034 53.02.089 54H98.91A53.15 53.15 0 0 0 99 51.043c0-.994-.034-1.979-.089-2.959z" opacity=".522"/>
</svg>
